<mxfile host="Electron" agent="Mozilla/5.0 (Windows NT 10.0; Win64; x64) AppleWebKit/537.36 (KHTML, like Gecko) draw.io/27.0.9 Chrome/134.0.6998.205 Electron/35.4.0 Safari/537.36" version="27.0.9" pages="5">
  <diagram id="xGuuT1eC2yIJp459DbOo" name=" Pruebas Unitarias">
    <mxGraphModel dx="1281" dy="626" grid="1" gridSize="10" guides="1" tooltips="1" connect="1" arrows="1" fold="1" page="1" pageScale="1" pageWidth="827" pageHeight="1169" math="0" shadow="0">
      <root>
        <mxCell id="0" />
        <mxCell id="1" parent="0" />
        <mxCell id="IaTVn5TE-BdtJHJa69V1-1" value="&lt;section id=&quot;markdown-section-91084a8f-5478-4347-8cb6-9628dabf142d-1&quot; class=&quot;markdown-section&quot; data-markdown-raw=&quot;## 🧪 **Tests Unitarios** (Lo que ya tienes)&quot; data-section-index=&quot;1&quot; style=&quot;border-radius: 4px; margin: 6px 0px; position: relative; scroll-margin-bottom: 40px; scroll-margin-top: 40px; color: rgb(216, 222, 233); font-family: &amp;quot;Segoe WPC&amp;quot;, &amp;quot;Segoe UI&amp;quot;, sans-serif; font-size: 13px; font-style: normal; font-variant-ligatures: normal; font-variant-caps: normal; font-weight: 400; letter-spacing: normal; orphans: 2; text-align: start; text-indent: 0px; text-transform: none; widows: 2; word-spacing: 0px; -webkit-text-stroke-width: 0px; white-space: normal; background-color: rgb(20, 20, 20); text-decoration-thickness: initial; text-decoration-style: initial; text-decoration-color: initial;&quot;&gt;&lt;h2 style=&quot;font-weight: 600 !important; font-size: 1.3em; line-height: 1.25; margin-bottom: 10px; margin-top: 20px;&quot;&gt;&lt;span&gt;🧪&lt;span&gt;&amp;nbsp;&lt;/span&gt;&lt;/span&gt;&lt;span class=&quot;markdown-bold-text&quot; style=&quot;font-weight: 600;&quot;&gt;&lt;span&gt;T&lt;/span&gt;&lt;span&gt;ests Un&lt;/span&gt;&lt;span&gt;itari&lt;/span&gt;&lt;span&gt;os&lt;/span&gt;&lt;/span&gt;&lt;span&gt;&lt;span&gt;&amp;nbsp;&lt;/span&gt;&lt;/span&gt;&lt;span&gt;(L&lt;/span&gt;&lt;span&gt;o&lt;/span&gt;&lt;span&gt;&lt;span&gt;&amp;nbsp;&lt;/span&gt;que ya&lt;/span&gt;&lt;span&gt;&lt;span&gt;&amp;nbsp;&lt;/span&gt;tiene&lt;/span&gt;&lt;span&gt;s)&lt;/span&gt;&lt;/h2&gt;&lt;/section&gt;&lt;section id=&quot;markdown-section-91084a8f-5478-4347-8cb6-9628dabf142d-2&quot; class=&quot;markdown-section&quot; data-markdown-raw=&quot;**¿Cuándo se ejecutan?**&#xa;- ✅ **En cada commit** (pre-commit hooks)&#xa;- ✅ **En cada pull request** (CI/CD pipeline)&#xa;- ✅ **Localmente** antes de hacer push&#xa;- ✅ **No requieren servicios externos**&quot; data-section-index=&quot;2&quot; style=&quot;border-radius: 4px; margin: 6px 0px; position: relative; scroll-margin-bottom: 40px; scroll-margin-top: 40px; color: rgb(216, 222, 233); font-family: &amp;quot;Segoe WPC&amp;quot;, &amp;quot;Segoe UI&amp;quot;, sans-serif; font-size: 13px; font-style: normal; font-variant-ligatures: normal; font-variant-caps: normal; font-weight: 400; letter-spacing: normal; orphans: 2; text-align: start; text-indent: 0px; text-transform: none; widows: 2; word-spacing: 0px; -webkit-text-stroke-width: 0px; white-space: normal; background-color: rgb(20, 20, 20); text-decoration-thickness: initial; text-decoration-style: initial; text-decoration-color: initial;&quot;&gt;&lt;span class=&quot;markdown-bold-text&quot; style=&quot;font-weight: 600;&quot;&gt;&lt;span&gt;¿Cuá&lt;/span&gt;&lt;span&gt;nd&lt;/span&gt;&lt;span&gt;o se&lt;/span&gt;&lt;span&gt;&lt;span&gt;&amp;nbsp;&lt;/span&gt;ejecu&lt;/span&gt;&lt;span&gt;tan?&lt;/span&gt;&lt;/span&gt;&lt;ul style=&quot;margin: 0px 0px 0px 16px; padding: 0px;&quot;&gt;&lt;li data-indent=&quot;0&quot; style=&quot;margin-bottom: 2px !important; margin-top: 2px !important; margin-left: 0px; padding-top: 2px; padding-bottom: 2px; list-style-type: disc;&quot;&gt;&lt;span&gt;✅&lt;span&gt;&amp;nbsp;&lt;/span&gt;&lt;/span&gt;&lt;span class=&quot;markdown-bold-text&quot; style=&quot;font-weight: 600;&quot;&gt;&lt;span&gt;E&lt;/span&gt;&lt;span&gt;n&lt;/span&gt;&lt;span&gt;&lt;span&gt;&amp;nbsp;&lt;/span&gt;cada commit&lt;/span&gt;&lt;/span&gt;&lt;span&gt;&lt;span&gt;&amp;nbsp;&lt;/span&gt;(pre&lt;/span&gt;&lt;span&gt;-co&lt;/span&gt;&lt;span&gt;mmit&lt;/span&gt;&lt;span&gt;&lt;span&gt;&amp;nbsp;&lt;/span&gt;hooks&lt;/span&gt;&lt;span&gt;)&lt;/span&gt;&lt;/li&gt;&lt;/ul&gt;&lt;ul style=&quot;margin: 0px 0px 0px 16px; padding: 0px;&quot;&gt;&lt;li data-indent=&quot;0&quot; style=&quot;margin-bottom: 2px !important; margin-top: 2px !important; margin-left: 0px; padding-top: 2px; padding-bottom: 2px; list-style-type: disc;&quot;&gt;&lt;span&gt;✅&lt;span&gt;&amp;nbsp;&lt;/span&gt;&lt;/span&gt;&lt;span class=&quot;markdown-bold-text&quot; style=&quot;font-weight: 600;&quot;&gt;&lt;span&gt;En c&lt;/span&gt;&lt;span&gt;ada p&lt;/span&gt;&lt;span&gt;ull reque&lt;/span&gt;&lt;span&gt;st&lt;/span&gt;&lt;/span&gt;&lt;span&gt;&lt;span&gt;&amp;nbsp;&lt;/span&gt;(CI&lt;/span&gt;&lt;span&gt;/CD p&lt;/span&gt;&lt;span&gt;ipeli&lt;/span&gt;&lt;span&gt;ne)&lt;/span&gt;&lt;/li&gt;&lt;/ul&gt;&lt;ul style=&quot;margin: 0px 0px 0px 16px; padding: 0px;&quot;&gt;&lt;li data-indent=&quot;0&quot; style=&quot;margin-bottom: 2px !important; margin-top: 2px !important; margin-left: 0px; padding-top: 2px; padding-bottom: 2px; list-style-type: disc;&quot;&gt;&lt;span&gt;✅&lt;/span&gt;&lt;span&gt;&lt;span&gt;&amp;nbsp;&lt;/span&gt;&lt;/span&gt;&lt;span class=&quot;markdown-bold-text&quot; style=&quot;font-weight: 600;&quot;&gt;&lt;span&gt;Localme&lt;/span&gt;&lt;span&gt;nte&lt;/span&gt;&lt;/span&gt;&lt;span&gt;&lt;span&gt;&amp;nbsp;&lt;/span&gt;antes de&lt;/span&gt;&lt;span&gt;&lt;span&gt;&amp;nbsp;&lt;/span&gt;hace&lt;/span&gt;&lt;span&gt;r push&lt;/span&gt;&lt;/li&gt;&lt;/ul&gt;&lt;ul style=&quot;margin: 0px 0px 0px 16px; padding: 0px;&quot;&gt;&lt;li data-indent=&quot;0&quot; style=&quot;margin-bottom: 2px !important; margin-top: 2px !important; margin-left: 0px; padding-top: 2px; padding-bottom: 2px; list-style-type: disc;&quot;&gt;&lt;span&gt;✅&lt;span&gt;&amp;nbsp;&lt;/span&gt;&lt;/span&gt;&lt;span class=&quot;markdown-bold-text&quot; style=&quot;font-weight: 600;&quot;&gt;&lt;span&gt;No&lt;/span&gt;&lt;span&gt;&lt;span&gt;&amp;nbsp;&lt;/span&gt;requieren se&lt;/span&gt;&lt;span&gt;rv&lt;/span&gt;&lt;span&gt;i&lt;/span&gt;&lt;span&gt;cios extern&lt;/span&gt;&lt;span&gt;o&lt;/span&gt;&lt;span&gt;s&lt;/span&gt;&lt;/span&gt;&lt;/li&gt;&lt;/ul&gt;&lt;/section&gt;&lt;section id=&quot;markdown-section-91084a8f-5478-4347-8cb6-9628dabf142d-4&quot; class=&quot;markdown-section&quot; data-markdown-raw=&quot;**¿Por qué?**&#xa;- Son **rápidos** (segundos)&#xa;- Son **determinísticos**&#xa;- Detectan **bugs temprano**&quot; data-section-index=&quot;4&quot; style=&quot;border-radius: 4px; margin: 6px 0px; position: relative; scroll-margin-bottom: 40px; scroll-margin-top: 40px; color: rgb(216, 222, 233); font-family: &amp;quot;Segoe WPC&amp;quot;, &amp;quot;Segoe UI&amp;quot;, sans-serif; font-size: 13px; font-style: normal; font-variant-ligatures: normal; font-variant-caps: normal; font-weight: 400; letter-spacing: normal; orphans: 2; text-align: start; text-indent: 0px; text-transform: none; widows: 2; word-spacing: 0px; -webkit-text-stroke-width: 0px; white-space: normal; background-color: rgb(20, 20, 20); text-decoration-thickness: initial; text-decoration-style: initial; text-decoration-color: initial;&quot;&gt;&lt;span class=&quot;markdown-bold-text&quot; style=&quot;font-weight: 600;&quot;&gt;&lt;span&gt;¿Por qué&lt;/span&gt;&lt;span&gt;?&lt;/span&gt;&lt;/span&gt;&lt;/section&gt;" style="text;whiteSpace=wrap;html=1;" vertex="1" parent="1">
          <mxGeometry x="400" y="210" width="310" height="200" as="geometry" />
        </mxCell>
      </root>
    </mxGraphModel>
  </diagram>
  <diagram id="CYortPhVMwcoh4EiI_4H" name="Pruebas de Integración">
    <mxGraphModel dx="610" dy="298" grid="1" gridSize="10" guides="1" tooltips="1" connect="1" arrows="1" fold="1" page="1" pageScale="1" pageWidth="827" pageHeight="1169" math="0" shadow="0">
      <root>
        <mxCell id="0" />
        <mxCell id="1" parent="0" />
        <mxCell id="wVHDntEg6RBTGTubbL9D-1" value="&lt;ul style=&quot;margin: 0px 0px 0px 16px; color: rgb(216, 222, 233); font-family: &amp;quot;Segoe WPC&amp;quot;, &amp;quot;Segoe UI&amp;quot;, sans-serif; font-size: 13px; font-style: normal; font-variant-ligatures: normal; font-variant-caps: normal; font-weight: 400; letter-spacing: normal; orphans: 2; text-align: start; text-indent: 0px; text-transform: none; widows: 2; word-spacing: 0px; -webkit-text-stroke-width: 0px; white-space: normal; background-color: rgb(20, 20, 20); text-decoration-thickness: initial; text-decoration-style: initial; text-decoration-color: initial; padding: 0px;&quot;&gt;&lt;li data-indent=&quot;0&quot; style=&quot;margin-bottom: 2px !important; margin-top: 2px !important; margin-left: 0px; padding-top: 2px; padding-bottom: 2px; list-style-type: disc;&quot;&gt;&lt;span class=&quot;markdown-bold-text&quot; style=&quot;font-weight: 600;&quot;&gt;&lt;span&gt;Base d&lt;/span&gt;&lt;span&gt;e dato&lt;/span&gt;&lt;span&gt;s re&lt;/span&gt;&lt;span&gt;al&lt;/span&gt;&lt;/span&gt;&lt;span&gt;&lt;span&gt;&amp;nbsp;&lt;/span&gt;(Postgre&lt;/span&gt;&lt;span&gt;S&lt;/span&gt;&lt;span&gt;QL con Pr&lt;/span&gt;&lt;span&gt;isma)&lt;/span&gt;&lt;/li&gt;&lt;/ul&gt;&lt;ul style=&quot;color: rgb(216, 222, 233); font-family: &amp;quot;Segoe WPC&amp;quot;, &amp;quot;Segoe UI&amp;quot;, sans-serif; font-size: 13px; font-style: normal; font-variant-ligatures: normal; font-variant-caps: normal; font-weight: 400; letter-spacing: normal; orphans: 2; text-align: start; text-indent: 0px; text-transform: none; widows: 2; word-spacing: 0px; -webkit-text-stroke-width: 0px; white-space: normal; background-color: rgb(20, 20, 20); text-decoration-thickness: initial; text-decoration-style: initial; text-decoration-color: initial; margin: 0px 0px 0px 16px; padding: 0px;&quot;&gt;&lt;li data-indent=&quot;0&quot; style=&quot;margin-bottom: 2px !important; margin-top: 2px !important; margin-left: 0px; padding-top: 2px; padding-bottom: 2px; list-style-type: disc;&quot;&gt;&lt;span class=&quot;markdown-bold-text&quot; style=&quot;font-weight: 600;&quot;&gt;&lt;span&gt;Ka&lt;/span&gt;&lt;span&gt;fka real&lt;/span&gt;&lt;/span&gt;&lt;span&gt;&lt;span&gt;&amp;nbsp;&lt;/span&gt;&lt;/span&gt;&lt;span&gt;(con test&lt;/span&gt;&lt;span&gt;conta&lt;/span&gt;&lt;span&gt;iners)&lt;/span&gt;&lt;/li&gt;&lt;/ul&gt;&lt;ul style=&quot;margin: 0px 0px 0px 16px; color: rgb(216, 222, 233); font-family: &amp;quot;Segoe WPC&amp;quot;, &amp;quot;Segoe UI&amp;quot;, sans-serif; font-size: 13px; font-style: normal; font-variant-ligatures: normal; font-variant-caps: normal; font-weight: 400; letter-spacing: normal; orphans: 2; text-align: start; text-indent: 0px; text-transform: none; widows: 2; word-spacing: 0px; -webkit-text-stroke-width: 0px; white-space: normal; background-color: rgb(20, 20, 20); text-decoration-thickness: initial; text-decoration-style: initial; text-decoration-color: initial; padding: 0px;&quot;&gt;&lt;li data-indent=&quot;0&quot; style=&quot;margin-bottom: 2px !important; margin-top: 2px !important; margin-left: 0px; padding-top: 2px; padding-bottom: 2px; list-style-type: disc;&quot;&gt;&lt;span class=&quot;markdown-bold-text&quot; style=&quot;font-weight: 600;&quot;&gt;&lt;span&gt;gRPC&lt;/span&gt;&lt;span&gt;&lt;span&gt;&amp;nbsp;&lt;/span&gt;real&lt;/span&gt;&lt;/span&gt;&lt;span&gt;&lt;span&gt;&amp;nbsp;&lt;/span&gt;(co&lt;/span&gt;&lt;span&gt;nectando a&lt;/span&gt;&lt;span&gt;&lt;span&gt;&amp;nbsp;&lt;/span&gt;e&lt;/span&gt;&lt;span&gt;nd&lt;/span&gt;&lt;span&gt;points&lt;/span&gt;&lt;span&gt;&lt;span&gt;&amp;nbsp;&lt;/span&gt;reales)&lt;/span&gt;&lt;/li&gt;&lt;/ul&gt;" style="text;whiteSpace=wrap;html=1;" vertex="1" parent="1">
          <mxGeometry x="10" y="10" width="300" height="90" as="geometry" />
        </mxCell>
        <mxCell id="r6ExbRGS5CUI_oIMx8yG-1" value="&lt;section id=&quot;markdown-section-91084a8f-5478-4347-8cb6-9628dabf142d-6&quot; class=&quot;markdown-section&quot; data-markdown-raw=&quot;## 🔗 **Tests de Integración** (Lo que estamos creando)&quot; data-section-index=&quot;6&quot; style=&quot;border-radius: 4px; margin: 6px 0px; position: relative; scroll-margin-bottom: 40px; scroll-margin-top: 40px; color: rgb(216, 222, 233); font-family: &amp;quot;Segoe WPC&amp;quot;, &amp;quot;Segoe UI&amp;quot;, sans-serif; font-size: 13px; font-style: normal; font-variant-ligatures: normal; font-variant-caps: normal; font-weight: 400; letter-spacing: normal; orphans: 2; text-align: start; text-indent: 0px; text-transform: none; widows: 2; word-spacing: 0px; -webkit-text-stroke-width: 0px; white-space: normal; background-color: rgb(20, 20, 20); text-decoration-thickness: initial; text-decoration-style: initial; text-decoration-color: initial;&quot;&gt;&lt;h2 style=&quot;font-weight: 600 !important; font-size: 1.3em; line-height: 1.25; margin-bottom: 10px; margin-top: 20px;&quot;&gt;&lt;span&gt;🔗&lt;span&gt;&amp;nbsp;&lt;/span&gt;&lt;/span&gt;&lt;span class=&quot;markdown-bold-text&quot; style=&quot;font-weight: 600;&quot;&gt;&lt;span&gt;Tests&lt;/span&gt;&lt;span&gt;&lt;span&gt;&amp;nbsp;&lt;/span&gt;de I&lt;/span&gt;&lt;span&gt;ntegraci&lt;/span&gt;&lt;span&gt;ón&lt;/span&gt;&lt;/span&gt;&lt;span&gt;&lt;span&gt;&amp;nbsp;&lt;/span&gt;(Lo q&lt;/span&gt;&lt;span&gt;ue&lt;/span&gt;&lt;span&gt;&lt;span&gt;&amp;nbsp;&lt;/span&gt;estam&lt;/span&gt;&lt;span&gt;o&lt;/span&gt;&lt;span&gt;s creando)&lt;/span&gt;&lt;/h2&gt;&lt;/section&gt;&lt;section id=&quot;markdown-section-91084a8f-5478-4347-8cb6-9628dabf142d-7&quot; class=&quot;markdown-section&quot; data-markdown-raw=&quot;**¿Cuándo se ejecutan?**&#xa;- ✅ **En CI/CD pipeline** (GitHub Actions, Jenkins, etc.)&#xa;- ✅ **Antes del deploy** a staging/production&#xa;- ✅ **Localmente** para desarrollo (opcional)&#xa;- ❌ **NO en pre-commit** (son más lentos)&quot; data-section-index=&quot;7&quot; style=&quot;border-radius: 4px; margin: 6px 0px; position: relative; scroll-margin-bottom: 40px; scroll-margin-top: 40px; color: rgb(216, 222, 233); font-family: &amp;quot;Segoe WPC&amp;quot;, &amp;quot;Segoe UI&amp;quot;, sans-serif; font-size: 13px; font-style: normal; font-variant-ligatures: normal; font-variant-caps: normal; font-weight: 400; letter-spacing: normal; orphans: 2; text-align: start; text-indent: 0px; text-transform: none; widows: 2; word-spacing: 0px; -webkit-text-stroke-width: 0px; white-space: normal; background-color: rgb(20, 20, 20); text-decoration-thickness: initial; text-decoration-style: initial; text-decoration-color: initial;&quot;&gt;&lt;span class=&quot;markdown-bold-text&quot; style=&quot;font-weight: 600;&quot;&gt;&lt;span&gt;¿Cuánd&lt;/span&gt;&lt;span&gt;o se&lt;/span&gt;&lt;span&gt;&lt;span&gt;&amp;nbsp;&lt;/span&gt;eje&lt;/span&gt;&lt;span&gt;cut&lt;/span&gt;&lt;span&gt;an?&lt;/span&gt;&lt;/span&gt;&lt;ul style=&quot;margin: 0px 0px 0px 16px; padding: 0px;&quot;&gt;&lt;li data-indent=&quot;0&quot; style=&quot;margin-bottom: 2px !important; margin-top: 2px !important; margin-left: 0px; padding-top: 2px; padding-bottom: 2px; list-style-type: disc;&quot;&gt;&lt;span&gt;✅&lt;span&gt;&amp;nbsp;&lt;/span&gt;&lt;/span&gt;&lt;span class=&quot;markdown-bold-text&quot; style=&quot;font-weight: 600;&quot;&gt;&lt;span&gt;En C&lt;/span&gt;&lt;span&gt;I/CD pipeli&lt;/span&gt;&lt;span&gt;n&lt;/span&gt;&lt;span&gt;e&lt;/span&gt;&lt;/span&gt;&lt;span&gt;&lt;span&gt;&amp;nbsp;&lt;/span&gt;(Git&lt;/span&gt;&lt;span&gt;Hub Acti&lt;/span&gt;&lt;span&gt;o&lt;/span&gt;&lt;span&gt;ns, Jenk&lt;/span&gt;&lt;span&gt;ins, e&lt;/span&gt;&lt;span&gt;tc.)&lt;/span&gt;&lt;/li&gt;&lt;/ul&gt;&lt;ul style=&quot;margin: 0px 0px 0px 16px; padding: 0px;&quot;&gt;&lt;li data-indent=&quot;0&quot; style=&quot;margin-bottom: 2px !important; margin-top: 2px !important; margin-left: 0px; padding-top: 2px; padding-bottom: 2px; list-style-type: disc;&quot;&gt;&lt;span&gt;✅&lt;span&gt;&amp;nbsp;&lt;/span&gt;&lt;/span&gt;&lt;span class=&quot;markdown-bold-text&quot; style=&quot;font-weight: 600;&quot;&gt;&lt;span&gt;Antes de&lt;/span&gt;&lt;span&gt;l de&lt;/span&gt;&lt;span&gt;ploy&lt;/span&gt;&lt;/span&gt;&lt;span&gt;&lt;span&gt;&amp;nbsp;&lt;/span&gt;a st&lt;/span&gt;&lt;span&gt;agi&lt;/span&gt;&lt;span&gt;ng/pr&lt;/span&gt;&lt;span&gt;oduction&lt;/span&gt;&lt;/li&gt;&lt;/ul&gt;&lt;ul style=&quot;margin: 0px 0px 0px 16px; padding: 0px;&quot;&gt;&lt;li data-indent=&quot;0&quot; style=&quot;margin-bottom: 2px !important; margin-top: 2px !important; margin-left: 0px; padding-top: 2px; padding-bottom: 2px; list-style-type: disc;&quot;&gt;&lt;span&gt;✅&lt;span&gt;&amp;nbsp;&lt;/span&gt;&lt;/span&gt;&lt;span class=&quot;markdown-bold-text&quot; style=&quot;font-weight: 600;&quot;&gt;&lt;span&gt;Localmen&lt;/span&gt;&lt;span&gt;te&lt;/span&gt;&lt;/span&gt;&lt;span&gt;&lt;span&gt;&amp;nbsp;&lt;/span&gt;para des&lt;/span&gt;&lt;span&gt;ar&lt;/span&gt;&lt;span&gt;rol&lt;/span&gt;&lt;span&gt;lo&lt;/span&gt;&lt;span&gt;&lt;span&gt;&amp;nbsp;&lt;/span&gt;(o&lt;/span&gt;&lt;span&gt;pcio&lt;/span&gt;&lt;span&gt;nal)&lt;/span&gt;&lt;/li&gt;&lt;/ul&gt;&lt;ul style=&quot;margin: 0px 0px 0px 16px; padding: 0px;&quot;&gt;&lt;li data-indent=&quot;0&quot; style=&quot;margin-bottom: 2px !important; margin-top: 2px !important; margin-left: 0px; padding-top: 2px; padding-bottom: 2px; list-style-type: disc;&quot;&gt;&lt;span&gt;❌&lt;/span&gt;&lt;span&gt;&lt;span&gt;&amp;nbsp;&lt;/span&gt;&lt;/span&gt;&lt;span class=&quot;markdown-bold-text&quot; style=&quot;font-weight: 600;&quot;&gt;&lt;span&gt;NO&lt;/span&gt;&lt;span&gt;&lt;span&gt;&amp;nbsp;&lt;/span&gt;en p&lt;/span&gt;&lt;span&gt;re-co&lt;/span&gt;&lt;span&gt;mmit&lt;/span&gt;&lt;/span&gt;&lt;span&gt;&lt;span&gt;&amp;nbsp;&lt;/span&gt;(son más&lt;/span&gt;&lt;span&gt;&lt;span&gt;&amp;nbsp;&lt;/span&gt;len&lt;/span&gt;&lt;span&gt;tos)&lt;/span&gt;&lt;/li&gt;&lt;/ul&gt;&lt;/section&gt;" style="text;whiteSpace=wrap;html=1;" vertex="1" parent="1">
          <mxGeometry x="20" y="90" width="420" height="180" as="geometry" />
        </mxCell>
      </root>
    </mxGraphModel>
  </diagram>
  <diagram id="Zve2S1ERjQ2RK1wQ9fKZ" name="Pruebas de Sistema">
    <mxGraphModel dx="1281" dy="626" grid="1" gridSize="10" guides="1" tooltips="1" connect="1" arrows="1" fold="1" page="1" pageScale="1" pageWidth="827" pageHeight="1169" math="0" shadow="0">
      <root>
        <mxCell id="0" />
        <mxCell id="1" parent="0" />
        <mxCell id="mXVWFMzAktQaBp4T2xZg-1" value="&lt;section id=&quot;markdown-section-91084a8f-5478-4347-8cb6-9628dabf142d-11&quot; class=&quot;markdown-section&quot; data-markdown-raw=&quot;## �� **Tests E2E** (End-to-End)&quot; data-section-index=&quot;11&quot; style=&quot;border-radius: 4px; margin: 6px 0px; position: relative; scroll-margin-bottom: 40px; scroll-margin-top: 40px; color: rgb(216, 222, 233); font-family: &amp;quot;Segoe WPC&amp;quot;, &amp;quot;Segoe UI&amp;quot;, sans-serif; font-size: 13px; font-style: normal; font-variant-ligatures: normal; font-variant-caps: normal; font-weight: 400; letter-spacing: normal; orphans: 2; text-align: start; text-indent: 0px; text-transform: none; widows: 2; word-spacing: 0px; -webkit-text-stroke-width: 0px; white-space: normal; background-color: rgb(20, 20, 20); text-decoration-thickness: initial; text-decoration-style: initial; text-decoration-color: initial;&quot;&gt;&lt;h2 style=&quot;font-weight: 600 !important; font-size: 1.3em; line-height: 1.25; margin-bottom: 10px; margin-top: 20px;&quot;&gt;&lt;span&gt;��&lt;span&gt;&amp;nbsp;&lt;/span&gt;&lt;/span&gt;&lt;span class=&quot;markdown-bold-text&quot; style=&quot;font-weight: 600;&quot;&gt;&lt;span&gt;Tes&lt;/span&gt;&lt;span&gt;ts E&lt;/span&gt;&lt;span&gt;2&lt;/span&gt;&lt;span&gt;E&lt;/span&gt;&lt;/span&gt;&lt;span&gt;&lt;span&gt;&amp;nbsp;&lt;/span&gt;(E&lt;/span&gt;&lt;span&gt;nd-to-End)&lt;/span&gt;&lt;/h2&gt;&lt;/section&gt;&lt;section id=&quot;markdown-section-91084a8f-5478-4347-8cb6-9628dabf142d-12&quot; class=&quot;markdown-section&quot; data-markdown-raw=&quot;**¿Cuándo se ejecutan?**&#xa;- ✅ **En staging environment**&#xa;- ✅ **Antes de production deploy**&#xa;- ✅ **En CI/CD pipeline** (separado de unit tests)&#xa;- ❌ **NO en desarrollo local** (muy lentos)&quot; data-section-index=&quot;12&quot; style=&quot;border-radius: 4px; margin: 6px 0px; position: relative; scroll-margin-bottom: 40px; scroll-margin-top: 40px; color: rgb(216, 222, 233); font-family: &amp;quot;Segoe WPC&amp;quot;, &amp;quot;Segoe UI&amp;quot;, sans-serif; font-size: 13px; font-style: normal; font-variant-ligatures: normal; font-variant-caps: normal; font-weight: 400; letter-spacing: normal; orphans: 2; text-align: start; text-indent: 0px; text-transform: none; widows: 2; word-spacing: 0px; -webkit-text-stroke-width: 0px; white-space: normal; background-color: rgb(20, 20, 20); text-decoration-thickness: initial; text-decoration-style: initial; text-decoration-color: initial;&quot;&gt;&lt;span class=&quot;markdown-bold-text&quot; style=&quot;font-weight: 600;&quot;&gt;&lt;span&gt;¿Cuánd&lt;/span&gt;&lt;span&gt;o s&lt;/span&gt;&lt;span&gt;e ejecutan?&lt;/span&gt;&lt;/span&gt;&lt;ul style=&quot;margin: 0px 0px 0px 16px; padding: 0px;&quot;&gt;&lt;li data-indent=&quot;0&quot; style=&quot;margin-bottom: 2px !important; margin-top: 2px !important; margin-left: 0px; padding-top: 2px; padding-bottom: 2px; list-style-type: disc;&quot;&gt;&lt;span&gt;✅&lt;span&gt;&amp;nbsp;&lt;/span&gt;&lt;/span&gt;&lt;span class=&quot;markdown-bold-text&quot; style=&quot;font-weight: 600;&quot;&gt;&lt;span&gt;En&lt;/span&gt;&lt;span&gt;&lt;span&gt;&amp;nbsp;&lt;/span&gt;st&lt;/span&gt;&lt;span&gt;a&lt;/span&gt;&lt;span&gt;ging&lt;/span&gt;&lt;span&gt;&lt;span&gt;&amp;nbsp;&lt;/span&gt;environment&lt;/span&gt;&lt;/span&gt;&lt;/li&gt;&lt;/ul&gt;&lt;ul style=&quot;margin: 0px 0px 0px 16px; padding: 0px;&quot;&gt;&lt;li data-indent=&quot;0&quot; style=&quot;margin-bottom: 2px !important; margin-top: 2px !important; margin-left: 0px; padding-top: 2px; padding-bottom: 2px; list-style-type: disc;&quot;&gt;&lt;span&gt;✅&lt;span&gt;&amp;nbsp;&lt;/span&gt;&lt;/span&gt;&lt;span class=&quot;markdown-bold-text&quot; style=&quot;font-weight: 600;&quot;&gt;&lt;span&gt;Antes&lt;/span&gt;&lt;span&gt;&lt;span&gt;&amp;nbsp;&lt;/span&gt;de&lt;/span&gt;&lt;span&gt;&lt;span&gt;&amp;nbsp;&lt;/span&gt;produc&lt;/span&gt;&lt;span&gt;ti&lt;/span&gt;&lt;span&gt;on deploy&lt;/span&gt;&lt;/span&gt;&lt;/li&gt;&lt;/ul&gt;&lt;ul style=&quot;margin: 0px 0px 0px 16px; padding: 0px;&quot;&gt;&lt;li data-indent=&quot;0&quot; style=&quot;margin-bottom: 2px !important; margin-top: 2px !important; margin-left: 0px; padding-top: 2px; padding-bottom: 2px; list-style-type: disc;&quot;&gt;&lt;span&gt;✅&lt;span&gt;&amp;nbsp;&lt;/span&gt;&lt;/span&gt;&lt;span class=&quot;markdown-bold-text&quot; style=&quot;font-weight: 600;&quot;&gt;&lt;span&gt;E&lt;/span&gt;&lt;span&gt;n CI&lt;/span&gt;&lt;span&gt;/CD&lt;/span&gt;&lt;span&gt;&lt;span&gt;&amp;nbsp;&lt;/span&gt;pip&lt;/span&gt;&lt;span&gt;eline&lt;/span&gt;&lt;/span&gt;&lt;span&gt;&lt;span&gt;&amp;nbsp;&lt;/span&gt;(separ&lt;/span&gt;&lt;span&gt;ad&lt;/span&gt;&lt;span&gt;o d&lt;/span&gt;&lt;span&gt;e uni&lt;/span&gt;&lt;span&gt;t tests)&lt;/span&gt;&lt;/li&gt;&lt;/ul&gt;&lt;ul style=&quot;margin: 0px 0px 0px 16px; padding: 0px;&quot;&gt;&lt;li data-indent=&quot;0&quot; style=&quot;margin-bottom: 2px !important; margin-top: 2px !important; margin-left: 0px; padding-top: 2px; padding-bottom: 2px; list-style-type: disc;&quot;&gt;&lt;span&gt;❌&lt;span&gt;&amp;nbsp;&lt;/span&gt;&lt;/span&gt;&lt;span class=&quot;markdown-bold-text&quot; style=&quot;font-weight: 600;&quot;&gt;&lt;span&gt;NO&lt;/span&gt;&lt;span&gt;&lt;span&gt;&amp;nbsp;&lt;/span&gt;en des&lt;/span&gt;&lt;span&gt;arrol&lt;/span&gt;&lt;span&gt;lo loca&lt;/span&gt;&lt;span&gt;l&lt;/span&gt;&lt;/span&gt;&lt;span&gt;&lt;span&gt;&amp;nbsp;&lt;/span&gt;(muy&lt;/span&gt;&lt;span&gt;&lt;span&gt;&amp;nbsp;&lt;/span&gt;len&lt;/span&gt;&lt;span&gt;tos)&lt;/span&gt;&lt;/li&gt;&lt;/ul&gt;&lt;/section&gt;" style="text;whiteSpace=wrap;html=1;" vertex="1" parent="1">
          <mxGeometry x="110" y="560" width="310" height="180" as="geometry" />
        </mxCell>
      </root>
    </mxGraphModel>
  </diagram>
  <diagram id="fXvYNgADk3Hqlv0ej4mw" name="Pruebas con Usuarios">
    <mxGraphModel dx="1281" dy="626" grid="1" gridSize="10" guides="1" tooltips="1" connect="1" arrows="1" fold="1" page="1" pageScale="1" pageWidth="827" pageHeight="1169" math="0" shadow="0">
      <root>
        <mxCell id="0" />
        <mxCell id="1" parent="0" />
      </root>
    </mxGraphModel>
  </diagram>
  <diagram id="a5UmFbeyl1e8pdGbKrW5" name="Pruebas de Aceptación">
    <mxGraphModel dx="1281" dy="626" grid="1" gridSize="10" guides="1" tooltips="1" connect="1" arrows="1" fold="1" page="1" pageScale="1" pageWidth="827" pageHeight="1169" math="0" shadow="0">
      <root>
        <mxCell id="0" />
        <mxCell id="1" parent="0" />
      </root>
    </mxGraphModel>
  </diagram>
</mxfile>
